# xmcd CD database file
#
# Track frame offsets:
#	150
#	16300
#	32316
#	57279
#	74064
#	87998
#	110621
#	127476
#	144426
#	158579
#	164773
#
# Disc length: 2420 seconds
#
# Revision: 0
# Processed by: cddbd v1.5.2PL0 Copyright (c) Steve Scherf et al.
# Submitted via: CDex 1.79
#
DISCID=9b09720b
DTITLE=Ruben Blades - Cantares del Subdesarollo
DYEAR=2009
DGENRE=Salsa
TTITLE0=Las calles 
TTITLE1=Pais Portatil 
TTITLE2=El Tartamudo 
TTITLE3=El Reto 
TTITLE4=Olaya 
TTITLE5=Segunda mitad de noveno
TTITLE6=Bendicion 
TTITLE7=Simbolo 
TTITLE8=Morire 
TTITLE9=Himno del Pueblo Master
TTITLE10=Simbolo PANAMA BONUS TRACK
EXTD=YEAR: 2009
EXTT0=
EXTT1=
EXTT2=
EXTT3=
EXTT4=
EXTT5=
EXTT6=
EXTT7=
EXTT8=
EXTT9=
EXTT10=
PLAYORDER=
